PathFileType	4	(X/Y/Z)	Patient5_TMGait_0pt45_1_left_12.trc.trc
DataRate	CameraRate	NumFrames	NumMarkers	Units	OrigDataRate	OrigDataStartFrame	OrigNumFrames
62.500000000000	62.500000000000	4	32	mm	62.500000000000	71	       141
Frame#	Time	R.ASIS			L.ASIS			Chest			R.Shoulder			Neck			L.Shoulder			L.Elbow			L.Wrist			R.Elbow			R.Wrist			L.Thigh.Superior			L.Thigh.Lateral			L.Thigh.Inferior			L.Patella			L.Shank.Superior			L.Shank.Lateral			L.Shank.Inferior			L.Heel			L.Midfoot.Lateral			L.Midfoot.Superior			L.Toe			R.Thigh.Superior			R.Thigh.Lateral			R.Thigh.Inferior			R.Patella			R.Shank.Superior			R.Shank.Lateral			R.Shank.Inferior			R.Heel			R.Midfoot.Lateral			R.Midfoot.Superior			R.Toe			
		X1	Y1	Z1	X2	Y2	Z2	X3	Y3	Z3	X4	Y4	Z4	X5	Y5	Z5	X6	Y6	Z6	X7	Y7	Z7	X8	Y8	Z8	X9	Y9	Z9	X10	Y10	Z10	X11	Y11	Z11	X12	Y12	Z12	X13	Y13	Z13	X14	Y14	Z14	X15	Y15	Z15	X16	Y16	Z16	X17	Y17	Z17	X18	Y18	Z18	X19	Y19	Z19	X20	Y20	Z20	X21	Y21	Z21	X22	Y22	Z22	X23	Y23	Z23	X24	Y24	Z24	X25	Y25	Z25	X26	Y26	Z26	X27	Y27	Z27	X28	Y28	Z28	X29	Y29	Z29	X30	Y30	Z30	X31	Y31	Z31	X32	Y32	Z32	

71	19.730000000000	1033.042911042680	1019.920411504128	533.655064317641	1053.074783603099	963.271969474873	287.029088856089	1106.983351304522	1444.292267789617	420.410242537136	970.015400894940	1512.368190862076	556.524853363644	997.003814083763	1571.098120141265	374.082102651214	1105.537087561053	1512.264821166267	219.851953990631	1133.225185316128	1184.992233752373	97.955777478771	1277.453501964960	947.758364492694	182.325946172612	841.314089685849	1198.260278140418	672.813602686554	1065.000038905139	1013.041856699558	660.586482044601	1048.318480006679	734.438090668154	298.351573799272	970.722081916433	672.072666879483	256.640679793599	1026.655679866707	608.810867086456	328.187869475404	1010.334273837708	496.738243954505	338.076917575812	955.220991047321	399.402381363348	358.883790760998	890.256060959518	331.789606346928	278.756988692052	913.067670144548	279.319766064995	369.734919113245	764.621592240363	51.812474723614	369.859967673961	854.150529479577	28.127215950713	311.515051936463	949.956250539486	88.460153541477	358.355150550062	1057.986222932867	43.920909685442	363.433812172504	1110.672162395958	820.816483921575	564.502607161234	1060.969826884714	734.385212419487	639.835459679253	1155.141490343633	700.728208340322	572.551016503882	1191.621769523840	609.821118227678	620.870244531351	1157.711157068952	494.465311262095	594.744969365258	1085.616440616342	428.951962904837	678.494285230707	1147.074498783609	355.014222541230	604.993579187996	1037.161073538701	127.128140145311	589.446442685975	1115.084944223276	94.099065050452	662.843613119032	1219.296224784975	163.705685617670	649.742763753878	1323.683684886501	122.533240067767	648.779518854127	
72	19.746000000000	1033.500786226979	1018.133102882156	533.337776932270	1050.749583976573	962.769215243217	286.670322740540	1104.058128771318	1443.991840127656	420.976123596289	968.133235375800	1511.013816485859	558.686058989012	993.040373613266	1570.356997308100	376.116484798234	1100.093670122783	1512.476296128730	220.551450334584	1128.155744146068	1184.972403243297	98.962853217116	1273.095372502879	948.477558778972	184.206326101014	840.132756085201	1197.035013169841	675.956479089905	1062.636823185642	1010.543351602285	662.114665490926	1045.447884005328	733.740228746863	298.047265263917	967.201759426814	671.520305628866	256.664147950785	1023.076435362623	608.087355551754	327.856522822307	1005.859000294284	495.830508403942	337.742277918335	950.062019354375	398.863582980156	358.865769994165	884.396220889458	331.755277804306	278.932761853724	907.209978888646	279.071809829422	369.814420956205	757.439002411345	51.932264656653	370.022203149685	846.915225488312	28.231172643017	311.622224152496	942.739322223406	88.493446503439	358.340310456191	1050.749863958539	43.932242282864	363.389348165685	1111.170727427456	817.889481160669	562.500763524957	1061.615117644192	731.643702977194	638.451254368684	1154.553216469360	697.594459257490	569.698507660285	1191.205775830342	606.686671842605	617.418770015560	1157.438746555934	491.579437382084	591.875538282922	1086.917794770430	425.748285214764	676.539894244826	1147.849737473758	352.135185265299	602.365739286853	1039.266456926436	123.553501464065	588.131359065554	1118.188214809405	91.130227325187	660.713672200080	1221.791033847179	161.420643234425	646.431943813402	1326.439887455881	120.927736214744	644.472218910282	
73	19.762000000000	1033.869282447328	1016.185192546383	532.835094194549	1048.532103692748	962.193889232776	286.501959385650	1101.265658010608	1443.639075972433	421.664697720992	966.487975488851	1509.569988908295	561.021648964339	989.167593247931	1569.539654311653	378.321427266289	1094.618396188703	1512.604149973790	221.346906685551	1122.670788638407	1184.915790121046	99.806736940017	1268.374286202088	949.094078246904	185.628494229717	839.498255143433	1195.675394154199	679.449423659800	1060.769609372606	1007.897176142134	663.610595400172	1042.766972714655	733.078770927746	298.000387712018	963.833371761665	670.956175927970	256.767051827302	1019.552425269720	607.358490798818	327.682008375274	1001.433486810854	494.871760237764	337.551764423194	944.946208100664	398.303271375146	358.905664894834	878.621143139990	331.698609681829	279.146186023128	901.359360271668	278.813537286411	369.936961974481	750.252046439873	52.045594045485	370.195999539722	839.678328158007	28.351864140871	311.728767182464	935.511661340401	88.491501935552	358.359117092705	1043.508430108948	43.949873959349	363.340321853987	1111.184677794389	814.578588681391	561.243137303636	1061.356004463474	728.419492991038	637.105652248070	1153.232816020357	693.899198103521	567.148777407336	1189.681005744906	602.932927193787	614.253534789569	1156.256518449070	488.216291814488	589.106969187918	1087.104276607904	421.952217873579	674.434653954135	1147.788328847905	348.754254723973	599.744311545105	1040.821347828809	119.420082910799	586.366651820727	1120.507178583321	87.614109611489	658.347967409898	1223.488566874518	158.639086385893	643.254155909896	1328.397065264824	118.877305191413	640.586526253502	
74	19.778000000000	1034.128563794291	1014.075862116135	532.191271835057	1046.436468923706	961.565029316696	286.523823186891	1098.614089574536	1443.231923098307	422.495345470887	965.067817167873	1508.061788068272	563.527161991394	985.408953276877	1568.657016933442	380.700086224128	1089.168784164798	1512.636138254058	222.262815522691	1116.844939426185	1184.816933350895	100.522569789631	1263.289831449579	949.530698607824	186.569632856154	839.382292994532	1194.200564993394	683.234011705374	1059.461762276102	1005.234167298398	665.063204173587	1040.243852663037	732.433154206495	298.170352636593	960.590894392921	670.390361916411	256.942320899938	1016.068541308820	606.622926415369	327.649419071846	997.019821246574	493.888708816398	337.495333953241	939.855941366043	397.736603521524	358.997272144898	872.908968739438	331.632061269020	279.392903162877	895.501864887666	278.554476666241	370.093838510932	743.060635055466	52.165770212044	370.379998174756	832.436958183188	28.497149310934	311.835613229350	928.275893210880	88.467289995419	358.402433213724	1036.260198349897	43.969947701016	363.286538079811	1110.690568755627	810.929617187770	560.555766258894	1060.231710404889	724.773535498134	635.836703328740	1151.222889285957	689.720549940759	564.922647229577	1187.120164680712	598.652552416056	611.401378653101	1154.228211041414	484.460619440918	586.451412317493	1086.220832795493	417.645671931355	672.213384512503	1146.923072200849	344.947550621171	597.140048503361	1041.778748783371	114.837792867888	584.183359682404	1122.048295430924	83.589991077452	655.719676822712	1224.405772058643	155.400066624102	640.160020644857	1329.580260634927	116.415166868967	636.976182700667	
